<svg width="54" height="63" viewBox="0 0 54 63" fill="none" xmlns="http://www.w3.org/2000/svg">
<path opacity="0.2" d="M40.9003 11.7122C41.6153 15.7459 40.037 19.3983 40.037 19.3983C40.037 19.3983 37.2995 16.5108 36.5845 12.4771C35.8696 8.44345 37.4479 4.79102 37.4479 4.79102C37.4479 4.79102 40.1854 7.67848 40.9003 11.7122Z" fill="#232323"/>
<path d="M39.7434 46.4211L39.8806 46.492C39.8671 46.6382 39.8345 46.7281 39.7434 46.4211Z" fill="#232323"/>
<path d="M39.9236 46.4682C39.9247 46.4839 39.927 46.5007 39.9281 46.5164L39.8799 46.4917C39.881 46.4771 39.8821 46.4614 39.8844 46.4458C39.8956 46.2497 39.8821 46.0177 39.9236 46.4682Z" fill="#232323"/>
<path d="M25.369 41.1074C35.5313 41.1074 43.7695 32.8693 43.7695 22.707C43.7695 12.5447 35.5313 4.30649 25.369 4.30649C15.2067 4.30649 6.96851 12.5447 6.96851 22.707C6.96851 32.8693 15.2067 41.1074 25.369 41.1074Z" fill="#232323"/>
<path d="M26.884 40.3575C33.0382 40.3575 38.0272 35.3685 38.0272 29.2142C38.0272 23.06 33.0382 18.071 26.884 18.071C20.7297 18.071 15.7407 23.06 15.7407 29.2142C15.7407 35.3685 20.7297 40.3575 26.884 40.3575Z" fill="#C4C4C4"/>
<path d="M52.3283 50.5716L52.3149 50.575L49.723 51.1969L44.3264 52.4923L43.5902 52.6693L35.3833 54.6381L34.6863 54.8062L14.7753 59.5842C13.4292 59.0694 12.1141 58.4771 10.8365 57.8104C10.8242 57.8037 10.8107 57.7969 10.7984 57.7902C10.7256 57.7521 10.6539 57.7151 10.5821 57.6759C10.4241 57.593 10.2669 57.5086 10.1104 57.4227C9.21955 56.933 8.3515 56.4093 7.50623 55.8517C7.28884 55.7094 7.0737 55.5648 6.86079 55.418C6.79244 55.371 6.72521 55.3239 6.65797 55.2768C6.58738 55.2275 6.51678 55.1782 6.44731 55.1289C6.26242 54.9978 6.07865 54.8652 5.896 54.7311C7.83007 51.2159 12.4355 48.8796 17.041 47.601C20.517 46.6351 21.2812 43.4606 21.2151 40.6357C21.1983 39.9913 21.1436 39.3485 21.0515 38.7106C20.911 37.6952 20.6877 36.6931 20.3836 35.7142L31.5275 36.0863L32.6772 38.7352C32.6457 39.0262 32.6356 39.3191 32.6469 39.6115C32.7343 41.7843 34.0756 43.1894 35.7307 44.096C35.9458 44.2136 36.1666 44.3234 36.3907 44.4254C39.1047 45.6591 42.2994 45.7432 42.2994 45.7432C43.2722 45.6356 44.2548 45.6541 45.2229 45.7981C45.4582 45.8339 45.6868 45.8769 45.9087 45.9269C47.204 46.2165 48.4278 46.7641 49.5068 47.5372C49.9189 47.8303 50.3088 48.1536 50.6733 48.5042C51.3211 49.1105 51.8785 49.8068 52.3283 50.5716Z" fill="#C4C4C4"/>
<path d="M53.9998 52.0407C53.9527 52.0844 53.9057 52.127 53.8586 52.1707C52.8715 53.0727 51.8373 53.9217 50.7603 54.7143C50.0375 55.2488 49.2957 55.7564 48.5349 56.2371C48.3679 56.3436 48.1998 56.4482 48.0306 56.5509C47.737 56.7302 47.4408 56.9054 47.142 57.0764C46.7521 57.3005 46.3573 57.5175 45.9576 57.7275C45.7962 57.8137 45.6338 57.8967 45.4713 57.9796C45.2337 58.1017 44.9951 58.2194 44.7541 58.3348C44.7127 58.355 44.6712 58.3751 44.6298 58.3942L44.1558 58.0009L49.7227 51.1969L50.8421 49.8287C50.8421 49.8287 51.2892 49.8287 52.3145 50.575C52.8812 50.9967 53.4167 51.4589 53.9169 51.9577C53.9438 51.9858 53.9718 52.0127 53.9998 52.0407Z" fill="#C4C4C4"/>
<path d="M53.9219 51.9645C53.9068 52.0348 53.8858 52.1038 53.8591 52.1707C52.872 53.0727 51.8378 53.9217 50.7608 54.7143C49.8264 55.0511 48.8569 55.2816 47.8709 55.4012C47.8709 55.4012 47.9549 55.8225 48.0311 56.5509C47.7375 56.7302 47.4413 56.9054 47.1425 57.0764C46.7526 57.3005 46.3578 57.5176 45.9581 57.7275C45.7967 57.8138 45.6343 57.8967 45.4718 57.9796C45.2342 58.1017 44.9955 58.2194 44.7546 58.3348C44.7132 58.355 44.6717 58.3751 44.6302 58.3942C44.4734 58.4704 44.3143 58.5444 44.1551 58.6183C42.0828 59.5741 39.9277 60.3389 37.7164 60.9031C37.7041 60.9065 37.6929 60.9087 37.6806 60.9121C37.536 60.9491 37.3904 60.9849 37.2447 61.0196C37.136 61.0465 37.0262 61.0723 36.9164 61.097C36.9028 61.1014 36.889 61.1048 36.8749 61.1071C36.6497 61.1597 36.4244 61.2101 36.197 61.2561C36.0692 61.283 35.9415 61.3099 35.8137 61.3356C35.7364 61.3525 35.658 61.367 35.5807 61.3816C35.4832 61.4006 35.3868 61.4186 35.2893 61.4376C35.2355 61.4488 35.1818 61.4578 35.1268 61.4667C35.0036 61.4892 34.8803 61.5116 34.7582 61.5329C34.5498 61.5687 34.3391 61.6035 34.1296 61.6348C33.9772 61.6584 33.8259 61.6808 33.6735 61.7021C33.4942 61.7278 33.3149 61.7514 33.1345 61.7738C33.0852 61.7816 33.0359 61.7872 32.9866 61.7928C32.9227 61.8007 32.8589 61.8085 32.795 61.8164C32.6661 61.832 32.5372 61.8466 32.4073 61.8601C32.34 61.8679 32.2739 61.8746 32.2067 61.8814C32.0789 61.8948 31.9512 61.9071 31.8235 61.9183C31.6587 61.934 31.494 61.9475 31.3282 61.9609C31.1265 61.9766 30.9259 61.9912 30.7231 62.0035C30.5931 62.0113 30.4631 62.0192 30.332 62.0259C29.9981 62.0438 29.6642 62.0562 29.328 62.0651C29.161 62.0696 28.9929 62.073 28.8249 62.0752H28.8215C28.6545 62.0774 28.4865 62.0786 28.3184 62.0786C26.615 62.0793 24.9135 61.9655 23.2255 61.7379C21.9873 61.5721 20.7688 61.3472 19.5702 61.0634C19.522 61.0521 19.4739 61.0409 19.4268 61.0286C19.3058 61.0006 19.1859 60.9704 19.066 60.9401C18.9595 60.9132 18.8542 60.8852 18.7477 60.8572C16.0042 60.1432 13.3503 59.1211 10.8366 57.8104C10.8243 57.8037 10.8109 57.7969 10.7985 57.7902C10.7257 57.7521 10.654 57.7151 10.5823 57.6759C16.733 56.2427 26.4527 53.9826 34.887 52.0463C35.1235 51.9925 35.3584 51.9387 35.5919 51.8849C38.707 51.17 41.6249 50.5044 44.0935 49.9475C44.349 49.8903 44.5992 49.8343 44.8443 49.7794C47.4966 49.1833 49.5562 48.7306 50.6734 48.5042C50.9745 48.4354 51.279 48.3819 51.5855 48.344L53.9174 51.9577L53.9219 51.9645Z" fill="#232323"/>
<path d="M8.5347 14.877C11.5618 14.877 14.0157 12.4231 14.0157 9.39599C14.0157 6.36892 11.5618 3.915 8.5347 3.915C5.50764 3.915 3.05371 6.36892 3.05371 9.39599C3.05371 12.4231 5.50764 14.877 8.5347 14.877Z" fill="#232323"/>
<path d="M42.2036 13.311C45.2307 13.311 47.6846 10.8571 47.6846 7.82999C47.6846 4.80293 45.2307 2.349 42.2036 2.349C39.1766 2.349 36.7227 4.80293 36.7227 7.82999C36.7227 10.8571 39.1766 13.311 42.2036 13.311Z" fill="#232323"/>
<path d="M36.3311 5.481C36.3313 4.12917 36.831 2.82509 37.7343 1.81937C38.6377 0.81364 39.8808 0.177222 41.2248 0.0324086C40.4594 -0.0512001 39.6849 0.0274049 38.9519 0.263102C38.2189 0.498799 37.5438 0.886299 36.9705 1.40035C36.3972 1.9144 35.9387 2.54347 35.6248 3.24657C35.3109 3.94967 35.1487 4.71101 35.1487 5.481C35.1487 6.25099 35.3109 7.01233 35.6248 7.71543C35.9387 8.41853 36.3972 9.0476 36.9705 9.56165C37.5438 10.0757 38.2189 10.4632 38.9519 10.6989C39.6849 10.9346 40.4594 11.0132 41.2248 10.9296C39.8808 10.7848 38.6377 10.1484 37.7343 9.14263C36.831 8.13691 36.3313 6.83283 36.3311 5.481Z" fill="#232323"/>
<path d="M2.41059 13.8295C1.46463 12.8637 0.908932 11.5825 0.850283 10.2319C0.791634 8.88138 1.23417 7.55679 2.09285 6.5127C1.4876 6.98868 0.989436 7.58683 0.630806 8.2682C0.272177 8.94957 0.0611361 9.69885 0.011432 10.4672C-0.0382722 11.2356 0.0744778 12.0058 0.342335 12.7277C0.610192 13.4496 1.02714 14.107 1.56602 14.657C2.1049 15.207 2.75362 15.6372 3.4699 15.9198C4.18618 16.2023 4.95395 16.3307 5.72318 16.2967C6.49241 16.2627 7.24585 16.0669 7.93439 15.7223C8.62293 15.3776 9.23112 14.8918 9.71934 14.2963C8.65796 15.1336 7.32462 15.549 5.97554 15.4628C4.62645 15.3766 3.35681 14.7949 2.41059 13.8295Z" fill="#232323"/>
<path d="M25.3692 14.094C18.8827 14.094 13.6243 17.1614 13.6243 20.9452C13.6243 22.6383 14.6812 24.1856 16.426 25.381L18.687 23.7427L18.0721 26.3093C18.3273 26.4275 18.5878 26.5419 18.8595 26.6477L22.2373 22.707V27.5482C23.273 27.7141 24.3203 27.7971 25.3692 27.7965C31.8558 27.7965 37.1142 24.729 37.1142 20.9452C37.1142 17.1614 31.8558 14.094 25.3692 14.094Z" fill="#232323"/>
<path d="M36.7226 7.82999C36.7226 7.82999 35.8714 11.745 41.1908 13.311L36.7226 7.82999Z" fill="#232323"/>
<path d="M13.6242 8.54255C13.6242 8.54255 15.5817 12.9195 9.70923 14.877L13.6242 8.54255Z" fill="#232323"/>
<path d="M16.5272 33.589C17.0211 33.4507 17.1525 32.3778 16.8207 31.1925C16.4888 30.0072 15.8195 29.1584 15.3256 29.2967C14.8318 29.435 14.7004 30.5079 15.0322 31.6932C15.364 32.8785 16.0334 33.7272 16.5272 33.589Z" fill="#C4C4C4"/>
<path d="M39.1396 29.6427C39.2153 28.4142 38.8617 27.3927 38.3498 27.3612C37.8379 27.3297 37.3616 28.3 37.2859 29.5286C37.2103 30.7571 37.5639 31.7786 38.0758 31.8101C38.5877 31.8416 39.064 30.8713 39.1396 29.6427Z" fill="#C4C4C4"/>
</svg>
