<svg width="54" height="63" viewBox="0 0 54 63" fill="none" xmlns="http://www.w3.org/2000/svg">
<path opacity="0.2" d="M11.314 15.0852C10.6762 18.9788 12.0841 22.5044 12.0841 22.5044C12.0841 22.5044 14.5259 19.7172 15.1636 15.8236C15.8013 11.93 14.3935 8.40445 14.3935 8.40445C14.3935 8.40445 11.9517 11.1916 11.314 15.0852Z" fill="#232323"/>
<path d="M22.8677 33.6166C30.1417 33.6166 36.0384 27.2354 36.0384 19.3639C36.0384 11.4923 30.1417 5.11117 22.8677 5.11117C15.5937 5.11117 9.69702 11.4923 9.69702 19.3639C9.69702 27.2354 15.5937 33.6166 22.8677 33.6166Z" fill="#C4C4C4"/>
<path d="M17.7229 30.2761C17.7229 30.2761 19.3692 38.7387 19.3692 39.6295C19.3692 40.5203 27.1893 44.5288 27.1893 44.5288L34.1862 43.1926L36.6557 35.1755C36.6557 35.1755 32.5399 28.4945 32.5399 25.8222L17.7229 30.2761Z" fill="#C4C4C4"/>
<path d="M54 39.9172L53.888 40.1963C50.8415 47.6963 45.559 53.8741 38.8853 57.7419C32.2115 61.6097 24.5319 62.9441 17.0747 61.5315C16.8718 61.4926 16.6693 61.4522 16.467 61.4104C14.3773 60.972 12.3311 60.319 10.356 59.4602C10.0351 59.3207 9.7166 59.1761 9.40042 59.0265C9.18453 58.9248 8.96863 58.8199 8.75473 58.7117C6.81595 57.7397 4.96686 56.5706 3.23239 55.2202L1.67114 50.3193L2.54872 49.5946L4.35385 48.1031L6.27992 46.512L6.78068 46.0977L14.338 39.8545L14.8958 39.3937L18.8239 36.1488L18.8249 36.1478C18.8249 36.1478 23.0728 43.6381 29.2469 41.411C35.4209 39.1839 35.286 32.7979 35.286 32.7979L54 39.9172Z" fill="#232323"/>
<path d="M11.4459 7.88096C11.4459 7.88096 15.6276 -1.92361 23.6424 0.338985C31.6572 2.60158 36.1873 5.99547 36.5358 9.38935C36.8842 12.7832 36.3615 17.8741 36.3615 17.8741C36.3615 17.8741 35.4904 10.8977 29.9148 12.4061C24.3393 13.9145 15.6276 12.7832 15.6276 12.7832L14.2337 26.3588C14.2337 26.3588 12.6656 23.9076 10.9232 25.416C9.18088 26.9244 5.87041 10.8977 11.4459 7.88096Z" fill="#232323"/>
<path d="M10.356 59.4602C10.0352 59.3207 9.71666 59.1761 9.40048 59.0265C9.18458 58.9248 8.96868 58.8199 8.75478 58.7117C5.54824 57.1027 2.59422 54.9603 0 52.3625C0.918558 51.0083 1.6712 50.3193 1.6712 50.3193H7.84522L8.77078 53.6875L10.356 59.4602Z" fill="#232323"/>
<path d="M48.5917 39.1839L53.8881 40.1963C52.4707 43.6905 50.5564 46.923 48.2148 49.7763L48.5917 39.1839Z" fill="#232323"/>
</svg>
